# Blender 4.0.2
# www.blender.org
mtllib grass_blade.mtl
o Plane
v -0.100000 0.000000 0.000000
v 0.100000 0.000000 0.000000
v 0.000000 -1.000000 -0.000000
v 0.000000 -1.000000 -0.000000
v -0.023438 -0.875000 -0.000000
v -0.043750 -0.750000 -0.000000
v -0.060937 -0.625000 -0.000000
v -0.075000 -0.500000 0.000000
v -0.085937 -0.375000 0.000000
v -0.093750 -0.250000 0.000000
v -0.098437 -0.125000 0.000000
v 0.098437 -0.125000 0.000000
v 0.093750 -0.250000 0.000000
v 0.085937 -0.375000 0.000000
v 0.075000 -0.500000 0.000000
v 0.060937 -0.625000 -0.000000
v 0.043750 -0.750000 -0.000000
v 0.023438 -0.875000 -0.000000
v 0.000000 -1.000000 -0.000000
vn -0.0000 -0.0000 -1.0000
vt 0.200027 0.999955
vt 0.000045 0.999955
vt 0.001607 0.874966
vt 0.198464 0.874966
vt 0.006294 0.749978
vt 0.193777 0.749978
vt 0.014106 0.624989
vt 0.185966 0.624989
vt 0.025042 0.500000
vt 0.175029 0.500000
vt 0.039104 0.375011
vt 0.160968 0.375011
vt 0.056290 0.250022
vt 0.143782 0.250022
vt 0.076600 0.125033
vt 0.123471 0.125034
vt 0.100036 0.000045
s 0
f 1/1/1 2/2/1 12/3/1 11/4/1
f 11/4/1 12/3/1 13/5/1 10/6/1
f 10/6/1 13/5/1 14/7/1 9/8/1
f 9/8/1 14/7/1 15/9/1 8/10/1
f 8/10/1 15/9/1 16/11/1 7/12/1
f 7/12/1 16/11/1 17/13/1 6/14/1
f 6/14/1 17/13/1 18/15/1 5/16/1
f 5/16/1 18/15/1 19/17/1
l 19 4
l 4 3
