# Blender 4.0.2
# www.blender.org
mtllib grass_blade_9.mtl
o Plane
v 0.000000 1.000000 0.000000
v 0.100000 0.000000 -0.000000
v -0.100000 0.000000 -0.000000
v -0.043750 0.750000 0.000000
v -0.075000 0.500000 0.000000
v -0.093750 0.250000 0.000000
v 0.093750 0.250000 -0.000000
v 0.075000 0.500000 -0.000000
v 0.043750 0.750000 0.000000
vn -0.0000 -0.0000 1.0000
vt 0.006250 0.750000
vt 0.025000 0.500000
vt 0.175000 0.500000
vt 0.193750 0.750000
vt 0.056250 0.250000
vt 0.143750 0.250000
vt 0.100000 0.000000
vt -0.000000 1.000000
vt 0.200000 1.000000
s 0
f 7/1/1 8/2/1 5/3/1 6/4/1
f 8/2/1 9/5/1 4/6/1 5/3/1
f 9/5/1 1/7/1 4/6/1
f 2/8/1 7/1/1 6/4/1 3/9/1
