# Blender 4.0.2
# www.blender.org
mtllib grass_blade_129.mtl
o Plane
v 0.000000 1.000000 0.000000
v 0.100000 0.000000 -0.000000
v -0.100000 0.000000 -0.000000
v -0.003101 0.984375 0.000000
v -0.006152 0.968750 0.000000
v -0.009155 0.953125 0.000000
v -0.012109 0.937500 0.000000
v -0.015015 0.921875 0.000000
v -0.017871 0.906250 0.000000
v -0.020679 0.890625 0.000000
v -0.023438 0.875000 0.000000
v -0.026147 0.859375 0.000000
v -0.028809 0.843750 0.000000
v -0.031421 0.828125 0.000000
v -0.033984 0.812500 0.000000
v -0.036499 0.796875 0.000000
v -0.038965 0.781250 0.000000
v -0.041382 0.765625 0.000000
v -0.043750 0.750000 0.000000
v -0.046069 0.734375 0.000000
v -0.048340 0.718750 0.000000
v -0.050562 0.703125 0.000000
v -0.052734 0.687500 0.000000
v -0.054858 0.671875 0.000000
v -0.056934 0.656250 0.000000
v -0.058960 0.640625 0.000000
v -0.060937 0.625000 0.000000
v -0.062866 0.609375 0.000000
v -0.064746 0.593750 0.000000
v -0.066577 0.578125 0.000000
v -0.068359 0.562500 0.000000
v -0.070093 0.546875 0.000000
v -0.071777 0.531250 0.000000
v -0.073413 0.515625 0.000000
v -0.075000 0.500000 0.000000
v -0.076538 0.484375 0.000000
v -0.078027 0.468750 0.000000
v -0.079468 0.453125 0.000000
v -0.080859 0.437500 0.000000
v -0.082202 0.421875 0.000000
v -0.083496 0.406250 0.000000
v -0.084741 0.390625 0.000000
v -0.085937 0.375000 0.000000
v -0.087085 0.359375 0.000000
v -0.088184 0.343750 0.000000
v -0.089233 0.328125 0.000000
v -0.090234 0.312500 0.000000
v -0.091187 0.296875 0.000000
v -0.092090 0.281250 0.000000
v -0.092944 0.265625 0.000000
v -0.093750 0.250000 0.000000
v -0.094507 0.234375 -0.000000
v -0.095215 0.218750 -0.000000
v -0.095874 0.203125 -0.000000
v -0.096484 0.187500 -0.000000
v -0.097046 0.171875 -0.000000
v -0.097559 0.156250 -0.000000
v -0.098022 0.140625 -0.000000
v -0.098437 0.125000 -0.000000
v -0.098804 0.109375 -0.000000
v -0.099121 0.093750 -0.000000
v -0.099390 0.078125 -0.000000
v -0.099609 0.062500 -0.000000
v -0.099780 0.046875 -0.000000
v -0.099902 0.031250 -0.000000
v -0.099976 0.015625 -0.000000
v 0.099976 0.015625 -0.000000
v 0.099902 0.031250 -0.000000
v 0.099780 0.046875 -0.000000
v 0.099609 0.062500 -0.000000
v 0.099390 0.078125 -0.000000
v 0.099121 0.093750 -0.000000
v 0.098804 0.109375 -0.000000
v 0.098437 0.125000 -0.000000
v 0.098022 0.140625 -0.000000
v 0.097559 0.156250 -0.000000
v 0.097046 0.171875 -0.000000
v 0.096484 0.187500 -0.000000
v 0.095874 0.203125 -0.000000
v 0.095215 0.218750 -0.000000
v 0.094507 0.234375 -0.000000
v 0.093750 0.250000 -0.000000
v 0.092944 0.265625 -0.000000
v 0.092090 0.281250 -0.000000
v 0.091187 0.296875 -0.000000
v 0.090234 0.312500 -0.000000
v 0.089233 0.328125 -0.000000
v 0.088184 0.343750 -0.000000
v 0.087085 0.359375 -0.000000
v 0.085937 0.375000 -0.000000
v 0.084741 0.390625 -0.000000
v 0.083496 0.406250 -0.000000
v 0.082202 0.421875 -0.000000
v 0.080859 0.437500 -0.000000
v 0.079468 0.453125 -0.000000
v 0.078027 0.468750 -0.000000
v 0.076538 0.484375 -0.000000
v 0.075000 0.500000 -0.000000
v 0.073413 0.515625 -0.000000
v 0.071777 0.531250 -0.000000
v 0.070093 0.546875 -0.000000
v 0.068359 0.562500 -0.000000
v 0.066577 0.578125 -0.000000
v 0.064746 0.593750 -0.000000
v 0.062866 0.609375 -0.000000
v 0.060937 0.625000 -0.000000
v 0.058960 0.640625 0.000000
v 0.056934 0.656250 0.000000
v 0.054858 0.671875 0.000000
v 0.052734 0.687500 0.000000
v 0.050562 0.703125 0.000000
v 0.048340 0.718750 0.000000
v 0.046069 0.734375 0.000000
v 0.043750 0.750000 0.000000
v 0.041382 0.765625 0.000000
v 0.038965 0.781250 0.000000
v 0.036499 0.796875 0.000000
v 0.033984 0.812500 0.000000
v 0.031421 0.828125 0.000000
v 0.028809 0.843750 0.000000
v 0.026147 0.859375 0.000000
v 0.023438 0.875000 0.000000
v 0.020679 0.890625 0.000000
v 0.017871 0.906250 0.000000
v 0.015015 0.921875 0.000000
v 0.012109 0.937500 0.000000
v 0.009155 0.953125 0.000000
v 0.006152 0.968750 0.000000
v 0.003101 0.984375 0.000000
vn -0.0000 -0.0000 1.0000
vt 0.103100 0.015625
vt 0.096899 0.015625
vt 0.100000 0.000000
vt 0.200000 1.000000
vt -0.000000 1.000000
vt 0.000024 0.984375
vt 0.199976 0.984375
vt 0.000098 0.968750
vt 0.199902 0.968750
vt 0.000220 0.953125
vt 0.199780 0.953125
vt 0.000391 0.937500
vt 0.199609 0.937500
vt 0.000610 0.921875
vt 0.199390 0.921875
vt 0.000879 0.906250
vt 0.199121 0.906250
vt 0.001196 0.890625
vt 0.198804 0.890625
vt 0.001562 0.875000
vt 0.198437 0.875000
vt 0.001977 0.859375
vt 0.198022 0.859375
vt 0.002441 0.843750
vt 0.197559 0.843750
vt 0.002954 0.828125
vt 0.197046 0.828125
vt 0.003516 0.812500
vt 0.196484 0.812500
vt 0.004126 0.796875
vt 0.195874 0.796875
vt 0.004785 0.781250
vt 0.195215 0.781250
vt 0.005493 0.765625
vt 0.194507 0.765625
vt 0.006250 0.750000
vt 0.193750 0.750000
vt 0.007056 0.734375
vt 0.192944 0.734375
vt 0.007910 0.718750
vt 0.192090 0.718750
vt 0.008813 0.703125
vt 0.191186 0.703125
vt 0.009766 0.687500
vt 0.190234 0.687500
vt 0.010767 0.671875
vt 0.189233 0.671875
vt 0.011816 0.656250
vt 0.188184 0.656250
vt 0.012915 0.640625
vt 0.187085 0.640625
vt 0.014062 0.625000
vt 0.185937 0.625000
vt 0.015259 0.609375
vt 0.184741 0.609375
vt 0.016504 0.593750
vt 0.183496 0.593750
vt 0.017798 0.578125
vt 0.182202 0.578125
vt 0.019141 0.562500
vt 0.180859 0.562500
vt 0.020532 0.546875
vt 0.179468 0.546875
vt 0.021973 0.531250
vt 0.178027 0.531250
vt 0.023462 0.515625
vt 0.176538 0.515625
vt 0.025000 0.500000
vt 0.175000 0.500000
vt 0.026587 0.484375
vt 0.173413 0.484375
vt 0.028223 0.468750
vt 0.171777 0.468750
vt 0.029907 0.453125
vt 0.170093 0.453125
vt 0.031641 0.437500
vt 0.168359 0.437500
vt 0.033423 0.421875
vt 0.166577 0.421875
vt 0.035254 0.406250
vt 0.164746 0.406250
vt 0.037134 0.390625
vt 0.162866 0.390625
vt 0.039062 0.375000
vt 0.160937 0.375000
vt 0.041040 0.359375
vt 0.158960 0.359375
vt 0.043066 0.343750
vt 0.156934 0.343750
vt 0.045142 0.328125
vt 0.154858 0.328125
vt 0.047266 0.312500
vt 0.152734 0.312500
vt 0.049438 0.296875
vt 0.150561 0.296875
vt 0.051660 0.281250
vt 0.148340 0.281250
vt 0.053931 0.265625
vt 0.146069 0.265625
vt 0.056250 0.250000
vt 0.143750 0.250000
vt 0.058618 0.234375
vt 0.141382 0.234375
vt 0.061035 0.218750
vt 0.138965 0.218750
vt 0.063501 0.203125
vt 0.136499 0.203125
vt 0.066016 0.187500
vt 0.133984 0.187500
vt 0.068579 0.171875
vt 0.131421 0.171875
vt 0.071191 0.156250
vt 0.128809 0.156250
vt 0.073852 0.140625
vt 0.126147 0.140625
vt 0.076562 0.125000
vt 0.123437 0.125000
vt 0.079321 0.109375
vt 0.120679 0.109375
vt 0.082129 0.093750
vt 0.117871 0.093750
vt 0.084985 0.078125
vt 0.115015 0.078125
vt 0.087891 0.062500
vt 0.112109 0.062500
vt 0.090845 0.046875
vt 0.109155 0.046875
vt 0.093848 0.031250
vt 0.106152 0.031250
s 0
f 4/1/1 129/2/1 1/3/1
f 3/4/1 2/5/1 67/6/1 66/7/1
f 66/7/1 67/6/1 68/8/1 65/9/1
f 65/9/1 68/8/1 69/10/1 64/11/1
f 64/11/1 69/10/1 70/12/1 63/13/1
f 63/13/1 70/12/1 71/14/1 62/15/1
f 62/15/1 71/14/1 72/16/1 61/17/1
f 61/17/1 72/16/1 73/18/1 60/19/1
f 60/19/1 73/18/1 74/20/1 59/21/1
f 59/21/1 74/20/1 75/22/1 58/23/1
f 58/23/1 75/22/1 76/24/1 57/25/1
f 57/25/1 76/24/1 77/26/1 56/27/1
f 56/27/1 77/26/1 78/28/1 55/29/1
f 55/29/1 78/28/1 79/30/1 54/31/1
f 54/31/1 79/30/1 80/32/1 53/33/1
f 53/33/1 80/32/1 81/34/1 52/35/1
f 52/35/1 81/34/1 82/36/1 51/37/1
f 51/37/1 82/36/1 83/38/1 50/39/1
f 50/39/1 83/38/1 84/40/1 49/41/1
f 49/41/1 84/40/1 85/42/1 48/43/1
f 48/43/1 85/42/1 86/44/1 47/45/1
f 47/45/1 86/44/1 87/46/1 46/47/1
f 46/47/1 87/46/1 88/48/1 45/49/1
f 45/49/1 88/48/1 89/50/1 44/51/1
f 44/51/1 89/50/1 90/52/1 43/53/1
f 43/53/1 90/52/1 91/54/1 42/55/1
f 42/55/1 91/54/1 92/56/1 41/57/1
f 41/57/1 92/56/1 93/58/1 40/59/1
f 40/59/1 93/58/1 94/60/1 39/61/1
f 39/61/1 94/60/1 95/62/1 38/63/1
f 38/63/1 95/62/1 96/64/1 37/65/1
f 37/65/1 96/64/1 97/66/1 36/67/1
f 36/67/1 97/66/1 98/68/1 35/69/1
f 35/69/1 98/68/1 99/70/1 34/71/1
f 34/71/1 99/70/1 100/72/1 33/73/1
f 33/73/1 100/72/1 101/74/1 32/75/1
f 32/75/1 101/74/1 102/76/1 31/77/1
f 31/77/1 102/76/1 103/78/1 30/79/1
f 30/79/1 103/78/1 104/80/1 29/81/1
f 29/81/1 104/80/1 105/82/1 28/83/1
f 28/83/1 105/82/1 106/84/1 27/85/1
f 27/85/1 106/84/1 107/86/1 26/87/1
f 26/87/1 107/86/1 108/88/1 25/89/1
f 25/89/1 108/88/1 109/90/1 24/91/1
f 24/91/1 109/90/1 110/92/1 23/93/1
f 23/93/1 110/92/1 111/94/1 22/95/1
f 22/95/1 111/94/1 112/96/1 21/97/1
f 21/97/1 112/96/1 113/98/1 20/99/1
f 20/99/1 113/98/1 114/100/1 19/101/1
f 19/101/1 114/100/1 115/102/1 18/103/1
f 18/103/1 115/102/1 116/104/1 17/105/1
f 17/105/1 116/104/1 117/106/1 16/107/1
f 16/107/1 117/106/1 118/108/1 15/109/1
f 15/109/1 118/108/1 119/110/1 14/111/1
f 14/111/1 119/110/1 120/112/1 13/113/1
f 13/113/1 120/112/1 121/114/1 12/115/1
f 12/115/1 121/114/1 122/116/1 11/117/1
f 11/117/1 122/116/1 123/118/1 10/119/1
f 10/119/1 123/118/1 124/120/1 9/121/1
f 9/121/1 124/120/1 125/122/1 8/123/1
f 8/123/1 125/122/1 126/124/1 7/125/1
f 7/125/1 126/124/1 127/126/1 6/127/1
f 6/127/1 127/126/1 128/128/1 5/129/1
f 5/129/1 128/128/1 129/2/1 4/1/1
